<?xml version="1.0" standalone="no"?>
<!DOCTYPE svg PUBLIC "-//W3C//DTD SVG 20010904//EN"
 "http://www.w3.org/TR/2001/REC-SVG-20010904/DTD/svg10.dtd">
<svg version="1.0" xmlns="http://www.w3.org/2000/svg"
 width="512.000000pt" height="512.000000pt" viewBox="0 0 512.000000 512.000000"
 preserveAspectRatio="xMidYMid meet">
<metadata>
Created by potrace 1.14, written by Peter Selinger 2001-2017
</metadata>
<g transform="translate(0.000000,512.000000) scale(0.100000,-0.100000)"
fill="#000000" stroke="none">
<path d="M1770 4189 c-173 -34 -326 -194 -359 -373 -14 -78 -15 -2300 -1
-2375 23 -121 113 -235 227 -289 53 -24 71 -27 200 -30 l142 -4 3 -90 c4 -125
11 -128 123 -55 49 31 91 57 95 57 4 0 47 -25 95 -55 49 -30 92 -55 96 -55 4
0 15 7 23 16 12 12 16 36 16 100 l0 84 633 0 c479 0 636 3 645 12 9 9 12 352
12 1480 0 1593 3 1505 -55 1558 l-27 25 -911 1 c-502 1 -932 -2 -957 -7z m60
-1178 l0 -1108 -62 -6 c-92 -7 -169 -40 -233 -99 l-55 -50 0 1020 c0 964 1
1023 18 1080 39 123 135 220 257 258 22 7 48 13 58 13 16 1 17 -58 17 -1108z
m1800 1090 c7 -13 10 -378 10 -1110 l0 -1091 -870 0 -870 0 0 1110 0 1110 860
0 c839 0 860 0 870 -19z m10 -2356 l0 -85 -674 0 c-724 0 -707 1 -691 -50 6
-20 10 -20 686 -20 l679 0 0 -85 0 -85 -887 -2 -888 -3 0 -30 c0 -29 2 -30 55
-35 l55 -5 0 -75 0 -75 -126 1 c-112 1 -132 4 -181 27 -66 30 -128 90 -160
155 -34 68 -33 197 1 266 45 92 134 160 230 176 25 4 463 8 974 9 l927 1 0
-85z m-1290 -555 l0 -160 -67 45 c-37 25 -72 45 -78 45 -7 0 -43 -20 -81 -44
l-69 -45 -3 147 c-1 80 0 152 2 159 4 10 41 13 151 13 l145 0 0 -160z m1290
80 l0 -80 -605 0 -605 0 0 80 0 80 605 0 605 0 0 -80z"/>
<path d="M2171 3867 c-13 -6 -34 -25 -45 -40 -21 -28 -21 -34 -24 -820 -2
-739 -1 -794 15 -827 36 -72 21 -70 656 -70 624 0 614 -1 650 59 16 27 17 93
17 826 0 874 2 838 -60 870 -25 13 -110 15 -607 15 -439 0 -584 -3 -602 -13z
m1179 -77 c19 -19 20 -33 20 -270 l0 -250 -595 0 -595 0 0 260 0 261 23 9 c12
5 270 9 575 9 539 1 552 1 572 -19z m20 -1083 c0 -371 -3 -487 -12 -500 -12
-16 -57 -17 -593 -15 l-580 3 -3 498 -2 497 595 0 595 0 0 -483z"/>
<path d="M2456 3708 c-28 -43 -136 -327 -130 -342 8 -20 32 -28 52 -17 8 5 23
28 32 52 l18 44 59 3 59 3 21 -51 c12 -27 28 -53 37 -56 20 -8 46 13 46 36 0
25 -129 333 -144 342 -20 13 -35 9 -50 -14z m49 -160 c7 -25 5 -28 -20 -28
-22 0 -26 3 -20 18 4 9 10 25 12 35 7 23 19 11 28 -25z"/>
<path d="M2952 3718 c-16 -16 -15 -45 1 -55 6 -4 42 -10 80 -13 l67 -5 -85
-128 c-117 -174 -114 -180 79 -175 91 3 111 6 120 21 8 12 8 22 0 35 -9 13
-28 18 -92 20 l-82 3 85 127 c86 128 95 148 73 170 -17 17 -229 17 -246 0z"/>
<path d="M2671 3551 c-14 -26 -4 -50 23 -57 11 -2 61 -4 110 -2 72 2 91 6 100
21 8 12 8 22 0 35 -9 14 -29 17 -117 20 -97 2 -107 1 -116 -17z"/>
<path d="M2336 3064 c-14 -13 -16 -60 -16 -362 0 -201 4 -353 10 -362 8 -13
69 -15 430 -18 284 -2 427 1 440 8 19 10 20 21 20 368 0 265 -3 361 -12 370
-9 9 -119 12 -434 12 -371 0 -424 -2 -438 -16z m814 -364 l0 -300 -375 0 -375
0 0 300 0 300 375 0 375 0 0 -300z"/>
<path d="M2564 2816 c-3 -8 -4 -23 -2 -33 3 -17 19 -18 213 -18 l210 0 0 30 0
30 -208 3 c-175 2 -208 0 -213 -12z"/>
<path d="M2564 2626 c-3 -8 -4 -23 -2 -33 3 -17 19 -18 213 -18 l210 0 0 30 0
30 -208 3 c-175 2 -208 0 -213 -12z"/>
</g>
</svg>
